<?xml version="1.0" encoding="utf-8"?>
<!-- Generator: Adobe Illustrator 16.0.0, SVG Export Plug-In . SVG Version: 6.00 Build 0)  -->
<!DOCTYPE svg PUBLIC "-//W3C//DTD SVG 1.1//EN" "http://www.w3.org/Graphics/SVG/1.1/DTD/svg11.dtd">
<svg version="1.1" id="Layer_1" xmlns="http://www.w3.org/2000/svg" xmlns:xlink="http://www.w3.org/1999/xlink" x="0px" y="0px"
	 width="213.7px" height="56px" viewBox="0 0 213.7 56" enable-background="new 0 0 213.7 56" xml:space="preserve">
<g id="Layer_2">
</g>
<g id="Layer_1_1_">
	<rect x="2.699" y="8.296" transform="matrix(1 -0.0053 0.0053 1 -0.1577 0.5782)" fill="none" width="212.606" height="43.502"/>
	<g enable-background="new    ">
		<path fill="#FFFFFF" d="M22.062,20.069c0.577,0.385,0.937,0.921,1.081,1.607c0.145,0.688,0.04,1.337-0.311,1.945
			c-0.384,0.575-0.92,0.936-1.608,1.08s-1.336,0.009-1.944-0.407c-1.793-1.184-3.273-1.775-4.441-1.775
			c-1.168,0.001-2.12,0.289-2.856,0.865c-0.512,0.353-0.767,0.664-0.767,0.936s0.04,0.473,0.12,0.601s0.248,0.271,0.504,0.432
			c0.704,0.48,1.872,0.864,3.504,1.151l0.048,0.048h0.048c1.696,0.319,3.248,0.799,4.656,1.438c1.408,0.64,2.448,1.52,3.121,2.639
			c0.672,1.12,1.009,2.225,1.009,3.312c0.001,2.24-1.006,4.097-3.022,5.568c-1.856,1.281-3.936,1.922-6.24,1.922
			c-2.976-0.029-5.825-1.134-8.545-3.309c-0.512-0.416-0.809-0.984-0.889-1.704c-0.081-0.721,0.103-1.336,0.552-1.849
			c0.415-0.576,0.991-0.896,1.728-0.961c0.736-0.063,1.36,0.129,1.872,0.576c1.729,1.438,3.488,2.144,5.281,2.109
			c1.216,0,2.304-0.305,3.264-0.913c0.576-0.479,0.864-0.888,0.863-1.225c0-0.337-0.048-0.567-0.144-0.695
			c-0.064-0.16-0.272-0.353-0.624-0.575c-0.768-0.545-2.048-0.99-3.84-1.344h-0.048c-1.697-0.318-3.177-0.783-4.44-1.391
			c-1.265-0.607-2.281-1.487-3.049-2.638C6.4,26.619,6.128,25.611,6.127,24.49c0-2.079,0.943-3.84,2.831-5.28
			c1.728-1.185,3.703-1.777,5.928-1.778C17.109,17.43,19.501,18.311,22.062,20.069z"/>
	</g>
	<g enable-background="new    ">
		<path fill="#FFFFFF" d="M30.356,37.898c-2.401-2.352-3.602-5.176-3.603-8.472s1.198-6.112,3.597-8.45
			c2.399-2.336,5.263-3.521,8.591-3.555c2.784-0.001,5.328,0.88,7.632,2.638c0.544,0.417,0.865,0.984,0.96,1.703
			c0.097,0.721-0.071,1.353-0.503,1.897c-0.432,0.544-0.992,0.863-1.68,0.96c-0.688,0.096-1.304-0.079-1.848-0.527
			c-1.409-1.023-3-1.535-4.777-1.535c-1.776,0.001-3.368,0.689-4.775,2.066c-1.408,1.376-2.111,2.993-2.11,4.849
			c0.001,1.856,0.697,3.465,2.089,4.823c1.393,1.358,2.984,2.039,4.777,2.038c1.792,0,3.391-0.514,4.8-1.537
			c0.511-0.415,1.119-0.576,1.823-0.48c0.704,0.097,1.272,0.416,1.705,0.961c0.432,0.543,0.601,1.158,0.504,1.847
			c-0.095,0.688-0.416,1.272-0.959,1.753c-2.368,1.697-4.912,2.545-7.631,2.546C35.621,41.425,32.757,40.25,30.356,37.898z"/>
		<path fill="#FFFFFF" d="M58.047,20.297c0.735-0.864,1.743-1.56,3.023-2.089c1.28-0.528,2.448-0.785,3.504-0.769
			c1.056,0.016,1.832,0.263,2.328,0.742c0.496,0.48,0.745,1.064,0.745,1.752c0,0.689-0.248,1.289-0.744,1.801
			c-0.496,0.512-1.096,0.769-1.799,0.769c-2.976,0.001-5.328,2.419-7.054,7.25l0.002,9.12c0,0.704-0.256,1.304-0.767,1.8
			c-0.512,0.498-1.128,0.745-1.848,0.745s-1.329-0.247-1.824-0.743c-0.497-0.495-0.745-1.096-0.745-1.8l-0.006-18.913
			c0-0.703,0.247-1.296,0.744-1.776c0.496-0.48,1.104-0.721,1.824-0.721c0.72,0,1.335,0.24,1.848,0.719
			c0.512,0.48,0.769,1.073,0.769,1.776V20.297z"/>
		<path fill="#FFFFFF" d="M81.429,41.555c-3.233,0.002-5.969-1.181-8.209-3.55c-2.241-2.366-3.362-5.198-3.363-8.495
			c-0.001-3.295,1.126-6.136,3.382-8.521c2.255-2.384,4.967-3.577,8.135-3.578s5.864,1.206,8.089,3.621
			c2.225,2.415,3.338,5.287,3.339,8.616c0.001,3.328-1.119,6.08-3.358,8.256C87.333,40.338,84.661,41.555,81.429,41.555z
			 M76.815,24.467c-1.151,1.345-1.727,3.01-1.727,4.994c0.001,1.984,0.578,3.68,1.73,5.087c1.248,1.185,2.752,1.775,4.513,1.775
			c1.759-0.001,3.264-0.593,4.512-1.778c1.247-1.406,1.871-3.104,1.87-5.088c0-1.984-0.625-3.648-1.873-4.993
			c-1.377-1.215-2.881-1.822-4.513-1.821C79.695,22.643,78.19,23.251,76.815,24.467z"/>
	</g>
	<g enable-background="new    ">
		<path fill="#FFFFFF" d="M96.463,10.445c0-0.735,0.255-1.359,0.768-1.872c0.512-0.512,1.136-0.768,1.872-0.768
			c0.736-0.001,1.368,0.255,1.896,0.767c0.528,0.513,0.792,1.137,0.792,1.872l0.009,28.32c0,0.736-0.264,1.36-0.791,1.872
			c-0.528,0.513-1.16,0.769-1.896,0.769c-0.736,0-1.36-0.256-1.872-0.768c-0.513-0.512-0.769-1.136-0.769-1.871L96.463,10.445z"/>
		<path fill="#FFFFFF" d="M108.417,10.442c0-0.735,0.254-1.359,0.768-1.873c0.512-0.512,1.136-0.768,1.872-0.768
			c0.735,0,1.368,0.255,1.896,0.767c0.528,0.513,0.793,1.137,0.793,1.872l0.01,28.32c0,0.736-0.264,1.36-0.791,1.872
			c-0.528,0.513-1.16,0.769-1.896,0.769s-1.359-0.256-1.872-0.768c-0.513-0.511-0.769-1.135-0.769-1.871L108.417,10.442z"/>
	</g>
	<g enable-background="new    ">
		<path fill="#FFFFFF" d="M124.258,10.389v1.008c0,0.736-0.246,1.36-0.742,1.872s-1.104,0.769-1.823,0.769
			c-0.719,0-1.337-0.256-1.849-0.768c-0.514-0.512-0.77-1.135-0.77-1.871v-1.008c0-0.704,0.256-1.312,0.768-1.825
			c0.512-0.512,1.129-0.768,1.849-0.768s1.327,0.247,1.824,0.742C124.01,9.038,124.258,9.653,124.258,10.389z M119.822,18.19
			c0.496-0.496,1.111-0.744,1.849-0.744c0.736,0,1.352,0.247,1.849,0.743c0.495,0.496,0.744,1.128,0.744,1.896l0.006,18.72
			c0,0.736-0.248,1.353-0.743,1.848c-0.496,0.498-1.104,0.746-1.824,0.746c-0.72,0-1.336-0.256-1.848-0.769
			c-0.514-0.512-0.77-1.119-0.77-1.823l-0.006-18.72C119.079,19.319,119.325,18.686,119.822,18.19z"/>
	</g>
	<g enable-background="new    ">
		<path fill="#FFFFFF" d="M135.829,49.626c-0.529,0.526-1.152,0.793-1.873,0.793c-0.72,0-1.336-0.265-1.849-0.792
			c-0.512-0.527-0.769-1.128-0.769-1.8l-0.01-27.888c0-0.703,0.248-1.304,0.744-1.801c0.495-0.496,1.088-0.744,1.775-0.744
			s1.279,0.191,1.775,0.575c0.496,0.384,0.793,0.848,0.89,1.392c2.016-1.312,4.19-1.969,6.526-1.97
			c3.199-0.001,5.937,1.183,8.209,3.549c2.272,2.368,3.41,5.2,3.41,8.496c0.002,3.297-1.134,6.104-3.404,8.426
			c-2.271,2.322-5.008,3.481-8.207,3.482c-2.465,0.002-4.607-0.654-6.432-1.966l0.002,8.447
			C136.62,48.497,136.355,49.098,135.829,49.626z M147.555,24.589c-1.248-1.311-2.77-1.967-4.561-1.966
			c-1.793,0-3.305,0.665-4.535,1.992c-1.231,1.33-1.848,2.985-1.848,4.97c0.001,1.983,0.626,3.536,1.874,4.654
			c1.216,1.345,2.714,2.016,4.488,2.016c1.776-0.001,3.295-0.673,4.56-2.019c1.264-1.344,1.896-2.937,1.896-4.775
			S148.804,25.998,147.555,24.589z"/>
		<path fill="#FFFFFF" d="M170.504,41.525c-3.232,0.002-5.969-1.18-8.209-3.549c-2.241-2.367-3.361-5.197-3.363-8.494
			c-0.001-3.295,1.126-6.137,3.382-8.521c2.255-2.385,4.967-3.578,8.136-3.579c3.168-0.001,5.863,1.206,8.088,3.621
			c2.227,2.416,3.338,5.287,3.34,8.616c0.002,3.328-1.119,6.081-3.357,8.257C176.409,40.311,173.736,41.525,170.504,41.525z
			 M165.891,24.44c-1.15,1.345-1.729,3.009-1.727,4.994c0,1.983,0.576,3.681,1.729,5.088c1.248,1.184,2.753,1.774,4.514,1.773
			c1.76,0,3.264-0.593,4.512-1.777c1.246-1.408,1.871-3.104,1.869-5.088c0-1.985-0.625-3.648-1.873-4.993
			c-1.377-1.216-2.881-1.822-4.513-1.822C168.771,22.616,167.266,23.223,165.891,24.44z"/>
		<path fill="#FFFFFF" d="M191.555,49.607c-0.528,0.527-1.152,0.793-1.872,0.793s-1.336-0.265-1.849-0.791
			c-0.513-0.527-0.769-1.129-0.77-1.801l-0.009-27.888c0-0.703,0.247-1.304,0.743-1.8c0.496-0.497,1.088-0.745,1.775-0.745
			c0.688,0,1.28,0.192,1.776,0.575c0.496,0.384,0.792,0.848,0.89,1.392c2.016-1.312,4.19-1.969,6.526-1.97
			c3.198-0.001,5.937,1.183,8.208,3.549c2.271,2.369,3.41,5.2,3.411,8.496c0.001,3.297-1.136,6.105-3.405,8.425
			c-2.271,2.322-5.007,3.482-8.207,3.483c-2.464,0.001-4.607-0.654-6.432-1.967l0.002,8.447
			C192.347,48.479,192.083,49.08,191.555,49.607z M203.284,24.573c-1.248-1.312-2.769-1.968-4.562-1.967
			c-1.792,0.001-3.304,0.665-4.535,1.992c-1.231,1.33-1.847,2.985-1.847,4.97c0,1.983,0.625,3.535,1.873,4.654
			c1.217,1.344,2.713,2.017,4.488,2.016c1.776-0.002,3.295-0.674,4.561-2.018c1.263-1.346,1.895-2.938,1.894-4.777
			C205.157,27.604,204.532,25.98,203.284,24.573z"/>
	</g>
</g>
<g>
	
		<linearGradient id="SVGID_1_" gradientUnits="userSpaceOnUse" x1="400.5181" y1="-333.6074" x2="403.0327" y2="-333.6074" gradientTransform="matrix(1 0 0 -1 -321.5 -269.5)">
		<stop  offset="0" style="stop-color:#A8CEE8"/>
		<stop  offset="1" style="stop-color:#FFFFFF"/>
	</linearGradient>
	<path fill="url(#SVGID_1_)" d="M81.328,85.793c-0.483,0.726-2.013,0.565-2.335-0.403c-0.081-0.322,0-0.643,0-0.966
		c0-1.048,0-2.176,0-3.222c0-5.076,0-10.15,0-15.226c0-5.479,0-10.955,0-16.353c0-2.578,0-5.075,0-7.653h2.417
		c0,1.934,0,3.947,0,5.881c0,5.156,0,10.312,0,15.466c0,5.236,0,10.555,0,15.791c0,1.69,0,3.382,0,5.073
		c0,0.403,0.081,0.886,0,1.289C81.49,85.633,81.409,85.713,81.328,85.793z"/>
	
		<linearGradient id="SVGID_2_" gradientUnits="userSpaceOnUse" x1="388.3696" y1="-299.3882" x2="415.1808" y2="-299.3882" gradientTransform="matrix(1 0 0 -1 -321.5 -269.5)">
		<stop  offset="0.0018" style="stop-color:#E86A50"/>
		<stop  offset="0.1231" style="stop-color:#E56D54"/>
		<stop  offset="0.2784" style="stop-color:#E0775F"/>
		<stop  offset="0.4522" style="stop-color:#DA8772"/>
		<stop  offset="0.6396" style="stop-color:#CF9C90"/>
		<stop  offset="0.8356" style="stop-color:#BFB7BA"/>
		<stop  offset="1" style="stop-color:#A8CEE8"/>
	</linearGradient>
	<circle fill="url(#SVGID_2_)" cx="80.281" cy="29.888" r="13.373"/>
	<g>
		
			<linearGradient id="SVGID_3_" gradientUnits="userSpaceOnUse" x1="387.4419" y1="-300.939" x2="416.4419" y2="-300.939" gradientTransform="matrix(1 0 0 -1 -321.5 -269.5)">
			<stop  offset="0.0025" style="stop-color:#E86A50"/>
			<stop  offset="0.1219" style="stop-color:#DE7D67"/>
			<stop  offset="0.3377" style="stop-color:#D09B8E"/>
			<stop  offset="0.5407" style="stop-color:#C2B2B2"/>
			<stop  offset="0.7248" style="stop-color:#B5C2CE"/>
			<stop  offset="0.884" style="stop-color:#ACCBE0"/>
			<stop  offset="1" style="stop-color:#A8CEE8"/>
		</linearGradient>
		<path fill="url(#SVGID_3_)" d="M94.942,31.821c-9.424,3.062-19.575,3.062-29,0c0.242-1.209,0.322-1.853,0.564-3.061
			c9.022,2.979,18.85,2.979,27.953,0C94.62,29.969,94.701,30.612,94.942,31.821z"/>
	</g>
</g>
<g>
	
		<linearGradient id="SVGID_4_" gradientUnits="userSpaceOnUse" x1="491.0444" y1="-335.0278" x2="493.6459" y2="-335.0278" gradientTransform="matrix(1 0 0 -1 -321.5 -269.5)">
		<stop  offset="0" style="stop-color:#A8CEE8"/>
		<stop  offset="1" style="stop-color:#FFFFFF"/>
	</linearGradient>
	<path fill="url(#SVGID_4_)" d="M171.934,87.961c-0.5,0.751-2.083,0.585-2.416-0.417c-0.084-0.333,0-0.665,0-0.999
		c0-1.084,0-2.251,0-3.333c0-5.251,0-10.5,0-15.751c0-5.667,0-11.332,0-16.916c0-2.667,0-5.25,0-7.917h2.5c0,2,0,4.083,0,6.083
		c0,5.334,0,10.668,0,16c0,5.416,0,10.918,0,16.335c0,1.749,0,3.499,0,5.248c0,0.417,0.084,0.917,0,1.334
		C172.102,87.795,172.018,87.878,171.934,87.961z"/>
	
		<linearGradient id="SVGID_5_" gradientUnits="userSpaceOnUse" x1="478.478" y1="-299.6284" x2="506.2124" y2="-299.6284" gradientTransform="matrix(1 0 0 -1 -321.5 -269.5)">
		<stop  offset="0.0018" style="stop-color:#E86A50"/>
		<stop  offset="0.1231" style="stop-color:#E56D54"/>
		<stop  offset="0.2784" style="stop-color:#E0775F"/>
		<stop  offset="0.4522" style="stop-color:#DA8772"/>
		<stop  offset="0.6396" style="stop-color:#CF9C90"/>
		<stop  offset="0.8356" style="stop-color:#BFB7BA"/>
		<stop  offset="1" style="stop-color:#A8CEE8"/>
	</linearGradient>
	<circle fill="url(#SVGID_5_)" cx="170.851" cy="30.128" r="13.833"/>
	<g>
		
			<linearGradient id="SVGID_6_" gradientUnits="userSpaceOnUse" x1="477.5181" y1="-301.2324" x2="507.5181" y2="-301.2324" gradientTransform="matrix(1 0 0 -1 -321.5 -269.5)">
			<stop  offset="0.0025" style="stop-color:#E86A50"/>
			<stop  offset="0.1219" style="stop-color:#DE7D67"/>
			<stop  offset="0.3377" style="stop-color:#D09B8E"/>
			<stop  offset="0.5407" style="stop-color:#C2B2B2"/>
			<stop  offset="0.7248" style="stop-color:#B5C2CE"/>
			<stop  offset="0.884" style="stop-color:#ACCBE0"/>
			<stop  offset="1" style="stop-color:#A8CEE8"/>
		</linearGradient>
		<path fill="url(#SVGID_6_)" d="M186.018,32.128c-9.75,3.167-20.25,3.167-30,0c0.25-1.25,0.333-1.916,0.583-3.166
			c9.333,3.083,19.499,3.083,28.917,0C185.684,30.212,185.768,30.878,186.018,32.128z"/>
	</g>
</g>
</svg>
