<?xml version="1.0" encoding="utf-8"?>
<!-- Generator: Adobe Illustrator 16.0.0, SVG Export Plug-In . SVG Version: 6.00 Build 0)  -->
<!DOCTYPE svg PUBLIC "-//W3C//DTD SVG 1.1//EN" "http://www.w3.org/Graphics/SVG/1.1/DTD/svg11.dtd">
<svg version="1.1" id="Layer_1" xmlns="http://www.w3.org/2000/svg" xmlns:xlink="http://www.w3.org/1999/xlink" x="0px" y="0px"
	 width="50.5px" height="96.4px" viewBox="0 0 50.5 96.4" style="enable-background:new 0 0 50.5 96.4;" xml:space="preserve">
<style type="text/css">
<![CDATA[
	.st0{fill:url(#SVGID_1_);}
	.st1{fill:url(#SVGID_2_);}
	.st2{fill:url(#SVGID_3_);}
]]>
</style>
<linearGradient id="SVGID_1_" gradientUnits="userSpaceOnUse" x1="24.0322" y1="64.4858" x2="27.1538" y2="64.4858">
	<stop  offset="0" style="stop-color:#A8CEE8"/>
	<stop  offset="1" style="stop-color:#FFFFFF"/>
</linearGradient>
<path class="st0" d="M26.9,91.4c-0.6,0.9-2.5,0.7-2.9-0.5c-0.1-0.4,0-0.8,0-1.2c0-1.3,0-2.7,0-4c0-6.3,0-12.6,0-18.9
	c0-6.8,0-13.6,0-20.3c0-3.2,0-6.3,0-9.5h3c0,2.4,0,4.9,0,7.3c0,6.4,0,12.8,0,19.2c0,6.5,0,13.1,0,19.6c0,2.1,0,4.2,0,6.3
	c0,0.5,0.1,1.1,0,1.6C27.1,91.2,27,91.3,26.9,91.4z"/>
<linearGradient id="SVGID_2_" gradientUnits="userSpaceOnUse" x1="8.9517" y1="22.0005" x2="42.2339" y2="22.0005">
	<stop  offset="1.796880e-03" style="stop-color:#E86A50"/>
	<stop  offset="0.1231" style="stop-color:#E56D54"/>
	<stop  offset="0.2784" style="stop-color:#E0775F"/>
	<stop  offset="0.4522" style="stop-color:#DA8772"/>
	<stop  offset="0.6396" style="stop-color:#CF9C90"/>
	<stop  offset="0.8356" style="stop-color:#BFB7BA"/>
	<stop  offset="1" style="stop-color:#A8CEE8"/>
</linearGradient>
<circle class="st1" cx="25.6" cy="22" r="16.6"/>
<g>
	<linearGradient id="SVGID_3_" gradientUnits="userSpaceOnUse" x1="7.7666" y1="23.9019" x2="43.7671" y2="23.9019">
		<stop  offset="2.460940e-03" style="stop-color:#E86A50"/>
		<stop  offset="0.1219" style="stop-color:#DE7D67"/>
		<stop  offset="0.3377" style="stop-color:#D09B8E"/>
		<stop  offset="0.5407" style="stop-color:#C2B2B2"/>
		<stop  offset="0.7248" style="stop-color:#B5C2CE"/>
		<stop  offset="0.884" style="stop-color:#ACCBE0"/>
		<stop  offset="1" style="stop-color:#A8CEE8"/>
	</linearGradient>
	<path class="st2" d="M43.8,24.4c-11.7,3.8-24.3,3.8-36,0c0.3-1.5,0.4-2.3,0.7-3.8c11.2,3.7,23.4,3.7,34.7,0
		C43.4,22.1,43.5,22.9,43.8,24.4z"/>
</g>
</svg>
