<?xml version="1.0" encoding="utf-8"?>
<!-- Generator: Adobe Illustrator 16.0.0, SVG Export Plug-In . SVG Version: 6.00 Build 0)  -->
<!DOCTYPE svg PUBLIC "-//W3C//DTD SVG 1.1//EN" "http://www.w3.org/Graphics/SVG/1.1/DTD/svg11.dtd">
<svg version="1.1" id="Layer_1" xmlns="http://www.w3.org/2000/svg" xmlns:xlink="http://www.w3.org/1999/xlink" x="0px" y="0px"
	 width="50.5px" height="96.4px" viewBox="0 0 50.5 96.4" style="enable-background:new 0 0 50.5 96.4;" xml:space="preserve">
<style type="text/css">
<![CDATA[
	.st0{opacity:0.4;fill:url(#SVGID_4_);enable-background:new    ;}
	.st1{opacity:0.6;fill:url(#SVGID_3_);enable-background:new    ;}
	.st2{enable-background:new    ;}
	.st3{fill:#F1F2F2;}
	.st4{fill:url(#SVGID_1_);}
	.st5{fill:url(#SVGID_2_);}
	.st6{opacity:0.2;fill:#FFFFFF;enable-background:new    ;}
	.st7{fill:none;}
]]>
</style>
<linearGradient id="SVGID_1_" gradientUnits="userSpaceOnUse" x1="254.7012" y1="-288.7795" x2="257.8232" y2="-288.7795" gradientTransform="matrix(1 0 0 -1 -231 -223.6001)">
	<stop  offset="0" style="stop-color:#A8CEE8"/>
	<stop  offset="1" style="stop-color:#FFFFFF"/>
</linearGradient>
<path class="st4" d="M26.6,92.1C26,93,24.1,92.8,23.7,91.6c-0.1-0.4,0-0.801,0-1.2c0-1.3,0-2.7,0-4c0-6.3,0-12.601,0-18.9
	c0-6.8,0-13.6,0-20.3c0-3.2,0-6.3,0-9.5h3c0,2.4,0,4.9,0,7.3c0,6.4,0,12.8,0,19.2c0,6.5,0,13.1,0,19.6c0,2.101,0,4.2,0,6.301
	c0,0.5,0.1,1.1,0,1.6C26.7,91.9,26.7,92,26.6,92.1z"/>
<radialGradient id="SVGID_2_" cx="270.5244" cy="-255.0168" r="21.8986" gradientTransform="matrix(0.9487 0 0 -0.9762 -231.383 -226.2971)" gradientUnits="userSpaceOnUse">
	<stop  offset="0.167" style="stop-color:#FECF8D"/>
	<stop  offset="0.3655" style="stop-color:#FECC8A"/>
	<stop  offset="0.5621" style="stop-color:#FDC383"/>
	<stop  offset="0.758" style="stop-color:#FBB477"/>
	<stop  offset="0.9523" style="stop-color:#F89F67"/>
	<stop  offset="1" style="stop-color:#F79962"/>
</radialGradient>
<path class="st5" d="M41.9,29c0,5.7-4.101,10.3-9.2,10.3H17.9c-5.1,0-9.2-4.6-9.2-10.3V16.3C8.7,10.6,12.8,6,17.9,6h14.8
	c5.1,0,9.2,4.601,9.2,10.3V29z"/>
<radialGradient id="SVGID_3_" cx="270.5234" cy="-257.6106" r="24.3989" gradientTransform="matrix(0.9487 0 0 -0.9709 -231.383 -227.5635)" gradientUnits="userSpaceOnUse">
	<stop  offset="0.167" style="stop-color:#E86A50"/>
	<stop  offset="0.294" style="stop-color:#E66C53"/>
	<stop  offset="0.4198" style="stop-color:#E2745B"/>
	<stop  offset="0.5452" style="stop-color:#DD806A"/>
	<stop  offset="0.6703" style="stop-color:#D5907F"/>
	<stop  offset="0.7954" style="stop-color:#CBA59D"/>
	<stop  offset="0.9187" style="stop-color:#BABDC5"/>
	<stop  offset="1" style="stop-color:#A8CEE8"/>
</radialGradient>
<path class="st1" d="M43.8,29.5c0,6.3-4.6,11.5-10.2,11.5H17c-5.7,0-10.2-5.1-10.2-11.5v-14C6.8,9.2,11.4,4.1,17,4.1h16.5
	c5.7,0,10.2,5.1,10.2,11.399v14H43.8z"/>
<linearGradient id="SVGID_4_" gradientUnits="userSpaceOnUse" x1="249.6045" y1="-266.9504" x2="263.0234" y2="-266.9504" gradientTransform="matrix(1 0 0 -1 -231 -223.6001)">
	<stop  offset="0" style="stop-color:#A8CEE8"/>
	<stop  offset="0.0176" style="stop-color:#AFC7D9"/>
	<stop  offset="0.0774" style="stop-color:#C1B3B4"/>
	<stop  offset="0.1439" style="stop-color:#CDA096"/>
	<stop  offset="0.2165" style="stop-color:#D68F7E"/>
	<stop  offset="0.2973" style="stop-color:#DC826C"/>
	<stop  offset="0.3898" style="stop-color:#E07760"/>
	<stop  offset="0.5013" style="stop-color:#E47057"/>
	<stop  offset="0.6508" style="stop-color:#E76B52"/>
	<stop  offset="1" style="stop-color:#E86A50"/>
</linearGradient>
<path class="st0" d="M29.4,44.7c0.1-0.2,0.3-0.4,0.699-0.5c0.601-0.2,1.9,1.1,2-0.3c0-0.601-2.5-3.4-3-3.2c-1,0.3-7-0.5-7.5,0.2
	c0,0.5-3.2,3.1-2.9,3.3c0.5,0.4,1.2,0.4,1.9,0.3c-0.6,1.601,1.8,1,2.6,0.8c1.7-0.399,3.8,1.2,5.3,0.7C29.1,45.8,29.1,45.2,29.4,44.7
	z"/>
<rect x="14.5" y="19.3" class="st7" width="22.1" height="8.601"/>
<g class="st2">
	<path class="st3" d="M17.064,21.315c0.096,0.063,0.156,0.153,0.18,0.268s0.007,0.223-0.052,0.324
		c-0.064,0.096-0.154,0.156-0.268,0.18c-0.115,0.024-0.223,0.001-0.324-0.068c-0.299-0.197-0.545-0.296-0.74-0.296
		c-0.195,0-0.354,0.049-0.476,0.145c-0.085,0.059-0.128,0.11-0.128,0.156c0,0.045,0.006,0.078,0.02,0.1
		c0.013,0.021,0.041,0.045,0.084,0.072c0.117,0.08,0.312,0.144,0.584,0.191l0.008,0.008h0.008c0.283,0.054,0.542,0.134,0.776,0.24
		c0.234,0.107,0.408,0.254,0.52,0.44c0.112,0.187,0.168,0.37,0.168,0.552c0,0.373-0.168,0.683-0.504,0.928
		c-0.309,0.214-0.656,0.32-1.04,0.32c-0.496-0.005-0.971-0.189-1.424-0.552c-0.085-0.069-0.135-0.164-0.148-0.284
		s0.017-0.223,0.092-0.308c0.069-0.097,0.166-0.149,0.288-0.16s0.227,0.021,0.312,0.096c0.288,0.24,0.582,0.357,0.88,0.352
		c0.203,0,0.384-0.05,0.544-0.151c0.096-0.08,0.144-0.148,0.144-0.204s-0.008-0.095-0.024-0.116
		c-0.011-0.026-0.045-0.059-0.104-0.096c-0.128-0.091-0.341-0.165-0.64-0.225h-0.008c-0.283-0.053-0.529-0.13-0.74-0.231
		c-0.211-0.102-0.38-0.248-0.508-0.44c-0.09-0.149-0.136-0.317-0.136-0.504c0-0.347,0.157-0.64,0.472-0.88
		c0.288-0.197,0.617-0.296,0.988-0.296S16.638,21.021,17.064,21.315z"/>
	<path class="st3" d="M18.648,24.287c-0.4-0.393-0.6-0.862-0.6-1.412c0-0.549,0.2-1.019,0.6-1.408
		c0.4-0.389,0.877-0.586,1.432-0.592c0.464,0,0.888,0.146,1.272,0.44c0.09,0.069,0.144,0.163,0.16,0.283
		c0.016,0.12-0.012,0.226-0.084,0.316c-0.072,0.091-0.166,0.144-0.28,0.16c-0.115,0.016-0.217-0.014-0.308-0.088
		c-0.234-0.171-0.5-0.256-0.796-0.256s-0.562,0.114-0.796,0.344c-0.235,0.229-0.352,0.499-0.352,0.808
		c0,0.31,0.116,0.577,0.348,0.804c0.232,0.228,0.497,0.341,0.796,0.341c0.298,0,0.565-0.086,0.8-0.256
		c0.085-0.069,0.187-0.097,0.304-0.08c0.117,0.016,0.212,0.069,0.284,0.159c0.072,0.091,0.1,0.193,0.084,0.309
		c-0.016,0.114-0.07,0.212-0.16,0.292c-0.395,0.282-0.819,0.424-1.272,0.424C19.526,24.875,19.048,24.678,18.648,24.287z"/>
	<path class="st3" d="M23.561,21.355c0.123-0.145,0.291-0.261,0.504-0.349s0.408-0.131,0.584-0.128
		c0.176,0.003,0.306,0.044,0.388,0.124s0.124,0.178,0.124,0.292c0,0.115-0.042,0.215-0.124,0.3c-0.083,0.086-0.183,0.128-0.3,0.128
		c-0.496,0-0.888,0.403-1.176,1.208v1.521c0,0.117-0.042,0.217-0.128,0.3s-0.188,0.124-0.308,0.124s-0.221-0.041-0.304-0.124
		c-0.083-0.083-0.124-0.183-0.124-0.3v-3.152c0-0.117,0.041-0.216,0.124-0.296c0.083-0.08,0.184-0.12,0.304-0.12
		s0.223,0.04,0.308,0.12s0.128,0.179,0.128,0.296V21.355z"/>
	<path class="st3" d="M27.752,24.899c-0.538,0-0.994-0.197-1.367-0.593c-0.373-0.395-0.561-0.866-0.561-1.416
		c0-0.549,0.188-1.022,0.564-1.42c0.376-0.396,0.828-0.596,1.355-0.596c0.528,0,0.978,0.201,1.349,0.604
		c0.37,0.403,0.556,0.882,0.556,1.437s-0.187,1.014-0.56,1.376C28.736,24.696,28.291,24.899,27.752,24.899z M26.984,22.051
		c-0.191,0.225-0.287,0.502-0.287,0.832c0,0.331,0.096,0.613,0.287,0.849c0.209,0.197,0.459,0.296,0.752,0.296
		s0.545-0.099,0.752-0.296c0.209-0.235,0.312-0.518,0.312-0.849c0-0.33-0.104-0.607-0.312-0.832
		c-0.229-0.202-0.479-0.304-0.752-0.304C27.465,21.747,27.214,21.848,26.984,22.051z"/>
</g>
<g class="st2">
	<path class="st3" d="M30.674,19.715c0-0.122,0.043-0.227,0.129-0.312c0.084-0.086,0.188-0.128,0.312-0.128
		c0.122,0,0.228,0.042,0.315,0.128c0.088,0.085,0.133,0.189,0.133,0.312v4.72c0,0.123-0.045,0.228-0.133,0.312
		s-0.193,0.128-0.315,0.128c-0.123,0-0.228-0.043-0.312-0.128c-0.086-0.085-0.129-0.189-0.129-0.312V19.715z"/>
	<path class="st3" d="M32.666,19.715c0-0.122,0.043-0.227,0.129-0.312c0.084-0.086,0.188-0.128,0.312-0.128
		c0.122,0,0.228,0.042,0.315,0.128c0.088,0.085,0.133,0.189,0.133,0.312v4.72c0,0.123-0.045,0.228-0.133,0.312
		s-0.193,0.128-0.315,0.128c-0.123,0-0.228-0.043-0.312-0.128c-0.086-0.085-0.129-0.189-0.129-0.312V19.715z"/>
	<path class="st3" d="M35.475,19.707v0.168c0,0.123-0.042,0.227-0.125,0.312c-0.082,0.086-0.184,0.129-0.304,0.129
		s-0.223-0.043-0.308-0.129c-0.086-0.085-0.129-0.188-0.129-0.312v-0.168c0-0.117,0.043-0.219,0.129-0.304
		c0.085-0.086,0.188-0.128,0.308-0.128s0.222,0.041,0.304,0.124C35.433,19.481,35.475,19.584,35.475,19.707z M34.734,21.007
		c0.082-0.082,0.185-0.124,0.308-0.124c0.122,0,0.226,0.042,0.308,0.124c0.083,0.083,0.125,0.188,0.125,0.316v3.12
		c0,0.122-0.042,0.225-0.125,0.308c-0.082,0.083-0.184,0.124-0.304,0.124s-0.223-0.043-0.308-0.128
		c-0.086-0.085-0.129-0.187-0.129-0.304v-3.12C34.609,21.195,34.651,21.09,34.734,21.007z"/>
</g>
<path class="st6" d="M38.6,8.6C41.2,11.1,40.7,16,37.4,19.5L23,35c-3.3,3.601-8.2,4.5-10.8,2.101l0,0c-2.6-2.5-2.1-7.4,1.2-10.9
	l14.3-15.4C31.1,7.1,35.9,6.2,38.6,8.6L38.6,8.6z"/>
</svg>
