<?xml version="1.0" encoding="utf-8"?>
<!-- Generator: Adobe Illustrator 16.0.0, SVG Export Plug-In . SVG Version: 6.00 Build 0)  -->
<!DOCTYPE svg PUBLIC "-//W3C//DTD SVG 1.1//EN" "http://www.w3.org/Graphics/SVG/1.1/DTD/svg11.dtd">
<svg version="1.1" id="Layer_1" xmlns="http://www.w3.org/2000/svg" xmlns:xlink="http://www.w3.org/1999/xlink" x="0px" y="0px"
	 width="41.8px" height="113.3px" viewBox="0 0 41.8 113.3" style="enable-background:new 0 0 41.8 113.3;" xml:space="preserve">
<style type="text/css">
<![CDATA[
	.st0{fill:url(#SVGID_1_);}
	.st1{fill:url(#SVGID_2_);}
	.st2{fill:url(#SVGID_3_);}
	.st3{fill:url(#SVGID_4_);}
	.st4{fill:url(#SVGID_5_);}
	.st5{fill:url(#SVGID_6_);}
	.st6{fill:#FECF8D;}
	.st7{fill:#FFFFFF;}
	.st8{fill:none;}
	.st9{fill:#A8CEE8;}
]]>
</style>
<linearGradient id="SVGID_1_" gradientUnits="userSpaceOnUse" x1="19.9795" y1="78.9663" x2="23.1011" y2="78.9663">
	<stop  offset="0" style="stop-color:#A8CEE8"/>
	<stop  offset="1" style="stop-color:#FFFFFF"/>
</linearGradient>
<path class="st0" d="M22.9,107.4c-0.6,0.9-2.5,0.7-2.9-0.5c-0.1-0.4,0-0.9,0-1.3c0-1.4,0-2.8,0-4.2c0-6.6,0-13.3,0-19.9
	c0-7.1,0-14.3,0-21.4c0-3.3,0-6.7,0-10h3c0,2.6,0,5.1,0,7.7c0,6.8,0,13.5,0,20.2c0,6.9,0,13.8,0,20.7c0,2.2,0,4.4,0,6.7
	c0,0.5,0.1,1.2,0,1.7C23,107.2,23,107.3,22.9,107.4z"/>
<linearGradient id="SVGID_2_" gradientUnits="userSpaceOnUse" x1="55.229" y1="-51.7524" x2="69.396" y2="-58.6632" gradientTransform="matrix(0.2613 -0.9075 0.9609 0.2767 57.8726 116.6436)">
	<stop  offset="0" style="stop-color:#E86A50"/>
	<stop  offset="1" style="stop-color:#A8CEE8"/>
</linearGradient>
<path class="st1" d="M18.5,53.7C12,51.8,7.9,46.3,9.3,41.3c1.4-5,7.9-7.5,14.4-5.6c6.5,1.9,10.6,7.4,9.2,12.4
	C31.4,53,25,55.6,18.5,53.7z"/>
<linearGradient id="SVGID_3_" gradientUnits="userSpaceOnUse" x1="18.3242" y1="47.0615" x2="28.5743" y2="38.0615">
	<stop  offset="0" style="stop-color:#E86A50"/>
	<stop  offset="1" style="stop-color:#A8CEE8"/>
</linearGradient>
<path class="st2" d="M18.5,53.7C12,51.8,7.9,46.3,9.3,41.3c1.4-5,7.9-7.5,14.4-5.6c6.5,1.9,10.6,7.4,9.2,12.4
	C31.4,53,25,55.6,18.5,53.7z"/>
<path class="st8" d="M15.3,24.2c0.1,0,0.2,0,0.2,0"/>
<path class="st9" d="M20.9,43.2c0.6,0.3,1.1,0.5,1.7,0.7c3,1.1,7,1.6,10,0.4c0.3,0.6,0.4,1.5,0.2,2.2c-5.4,1.7-11.4,0.1-15.8-3.3
	c-2.2-1.7-6.1-5.4-2-6.4C15.5,39.7,18.3,41.9,20.9,43.2z"/>
<linearGradient id="SVGID_4_" gradientUnits="userSpaceOnUse" x1="16.1816" y1="36.5625" x2="30.6649" y2="28.5717">
	<stop  offset="0" style="stop-color:#E86A50"/>
	<stop  offset="1" style="stop-color:#A8CEE8"/>
</linearGradient>
<path class="st3" d="M18.9,42.3C13,40.6,8,35.9,9.6,30.3c1.4-5,7.9-7.5,14.4-5.6c6.5,1.9,10.6,7.4,9.2,12.4
	C31.4,42.9,24.7,44.1,18.9,42.3z"/>
<path class="st9" d="M20.9,32.2c0.6,0.3,1.1,0.5,1.7,0.7c3,1.1,7,1.6,10,0.4c0.3,0.6,0.4,1.5,0.2,2.2c-5.4,1.7-11.4,0.1-15.8-3.3
	c-2.2-1.7-6.1-5.4-2-6.4C15.5,28.7,18.3,30.9,20.9,32.2z"/>
<linearGradient id="SVGID_5_" gradientUnits="userSpaceOnUse" x1="16.0532" y1="26.5479" x2="29.0531" y2="20.2979">
	<stop  offset="0" style="stop-color:#E86A50"/>
	<stop  offset="1" style="stop-color:#A8CEE8"/>
</linearGradient>
<path class="st4" d="M18.8,33c-6.5-1.9-10.6-7.4-9.2-12.4c1.4-5,7.9-7.5,14.4-5.6c6.5,1.9,10.6,7.4,9.2,12.4
	C31.7,32.4,25.3,34.9,18.8,33z"/>
<path class="st9" d="M21.3,22.5c0.6,0.3,1.1,0.5,1.7,0.7c3,1.1,7,1.6,10,0.4c0.3,0.6,0.4,1.5,0.2,2.2c-5.4,1.7-11.4,0.1-15.8-3.3
	c-2.2-1.7-6.1-5.4-2-6.4C15.9,19.1,18.6,21.2,21.3,22.5z"/>
<linearGradient id="SVGID_6_" gradientUnits="userSpaceOnUse" x1="12.3643" y1="18.2158" x2="29.3643" y2="7.7158">
	<stop  offset="0" style="stop-color:#E86A50"/>
	<stop  offset="1" style="stop-color:#A8CEE8"/>
</linearGradient>
<path class="st5" d="M18.8,21.7c-6.5-1.9-10.6-7.4-9.2-12.4c1.4-5,7.9-7.5,14.4-5.6C30.5,5.5,34.6,11,33.1,16
	C31.7,21,25.3,23.6,18.8,21.7z"/>
<path class="st6" d="M10,19.4c0.1-0.2,0.2-0.4,0.4-0.6c-0.4,0.6,1.3,3.2,1.6,3.7c0.6,1,1.3,2.1,2.2,2.9c3.1,2.9,12.9,7.7,17.1,5.2
	c-3,1.8-7.4,1.4-10.7,0.7c-3.7-0.8-8-2.3-10.4-5.4C8.9,24.2,9,21.4,10,19.4z"/>
<path class="st6" d="M9.7,40.1c0.3-0.6,0.7-1.3,1.2-1.7c-1.5,1.3,2.6,6.9,3.6,7.9c3.1,2.9,12.9,7.7,17.1,5.2
	C25.4,55.3,5.3,50,9.7,40.1z"/>
<path class="st6" d="M9.9,8.3c0.1-0.2,0.3-0.4,0.4-0.6c-1,1.6,2.9,5.8,3.9,6.7c3.1,2.9,12.9,7.7,17.1,5.2c-3.1,1.8-7.5,1.4-10.8,0.6
	c-3.6-0.8-8.1-2.4-10.4-5.6C9.1,13.1,9,10.5,9.7,8.7C9.7,8.6,9.8,8.5,9.9,8.3z"/>
<path class="st6" d="M9.9,29.2c0.2-0.3,0.3-0.6,0.6-0.9c0,1.5,1,2.8,1.8,4c0.6,1,1.3,2.1,2.2,2.9c3.1,2.9,12.9,7.7,17.1,5.2
	c-2.9,1.8-7.1,1.4-10.3,0.7c-3.7-0.7-7.8-2.2-10.4-5.1C9.3,34.4,8.8,31.4,9.9,29.2z"/>
<path class="st7" d="M25.3,27.4c0.9,0.2,7.3,1.6,7.5-0.3c-0.6,4.2-7.7,2.1-10.4,1.2c-5.1-1.6-9.8-5.3-11.1-10.6
	c1,3.9,6.2,6.8,9.6,8.3C22.1,26.5,23.7,27,25.3,27.4z"/>
<path class="st7" d="M25.3,16.4c0.9,0.2,7.3,1.6,7.5-0.3c-0.6,4.2-7.7,2.1-10.4,1.2c-2.6-0.8-5-2.2-7-4c-1.8-1.6-4.2-4.3-4.1-6.9
	c0.7,4.1,6.2,7.1,9.6,8.6C22.1,15.5,23.7,16,25.3,16.4z"/>
<path class="st7" d="M25.3,48.4c0.9,0.2,7.3,1.6,7.5-0.3c-0.6,4.2-7.7,2.1-10.4,1.2c-4.9-1.5-10.8-5.9-11.3-11.5
	c0.3,4,6.6,7.8,9.8,9.2C22.1,47.5,23.7,48,25.3,48.4z"/>
<path class="st7" d="M25.3,37.4c0.9,0.2,7.3,1.6,7.5-0.3c-0.6,4.2-7.7,2.1-10.4,1.2c-4.4-1.4-10.2-5.1-10.9-10
	c2.2,3.6,5.7,6,9.5,7.7C22.1,36.5,23.7,37,25.3,37.4z"/>
<path class="st9" d="M21,10.2c0.6,0.3,1.1,0.5,1.7,0.7c3,1.1,7,1.6,10.1,0.4c0.3,0.6,0.4,1.5,0.2,2.2c-5.4,1.7-11.4,0.1-15.9-3.3
	c-2.2-1.7-6.2-5.4-2-6.4C15.6,6.7,18.3,8.9,21,10.2z"/>
</svg>
