<?xml version="1.0" encoding="utf-8"?>
<!-- Generator: Adobe Illustrator 16.0.0, SVG Export Plug-In . SVG Version: 6.00 Build 0)  -->
<!DOCTYPE svg PUBLIC "-//W3C//DTD SVG 1.1//EN" "http://www.w3.org/Graphics/SVG/1.1/DTD/svg11.dtd">
<svg version="1.1" id="Layer_1" xmlns="http://www.w3.org/2000/svg" xmlns:xlink="http://www.w3.org/1999/xlink" x="0px" y="0px"
	 width="50.5px" height="96.4px" viewBox="0 0 50.5 96.4" style="enable-background:new 0 0 50.5 96.4;" xml:space="preserve">
<style type="text/css">
<![CDATA[
	.st0{fill:url(#SVGID_1_);}
	.st1{fill:url(#SVGID_2_);}
	.st2{fill:#FFFFFF;}
]]>
</style>
<linearGradient id="SVGID_1_" gradientUnits="userSpaceOnUse" x1="24.2852" y1="64.1626" x2="27.4067" y2="64.1626">
	<stop  offset="0" style="stop-color:#A8CEE8"/>
	<stop  offset="1" style="stop-color:#FFFFFF"/>
</linearGradient>
<path class="st0" d="M27.2,91.1c-0.6,0.9-2.5,0.7-2.9-0.5c-0.1-0.4,0-0.8,0-1.2c0-1.3,0-2.7,0-4c0-6.3,0-12.6,0-18.9
	c0-6.8,0-13.6,0-20.3c0-3.2,0-6.3,0-9.5h3c0,2.4,0,4.9,0,7.3c0,6.4,0,12.8,0,19.2c0,6.5,0,13.1,0,19.6c0,2.1,0,4.2,0,6.3
	c0,0.5,0.1,1.1,0,1.6C27.3,90.9,27.3,91,27.2,91.1z"/>
<linearGradient id="SVGID_2_" gradientUnits="userSpaceOnUse" x1="16.3975" y1="28.6162" x2="37.7305" y2="12.9496">
	<stop  offset="0.2243" style="stop-color:#F79962"/>
	<stop  offset="0.3946" style="stop-color:#F8A068"/>
	<stop  offset="0.6775" style="stop-color:#FBB376"/>
	<stop  offset="1" style="stop-color:#FECF8D"/>
</linearGradient>
<circle class="st1" cx="25.8" cy="21.7" r="16.6"/>
<path class="st2" d="M25.9,21.7l11.5-12c0,0,5.2,4.4,5.1,12.3L25.9,21.7z"/>
<path class="st2" d="M25.9,21.7l-12-11.5c0,0,4.2-5.3,12.1-5.2L25.9,21.7z"/>
<path class="st2" d="M25.9,21.7l12,11.5c0,0-4.2,5.3-12.1,5.2L25.9,21.7z"/>
<path class="st2" d="M25.9,21.7l-11.5,12c0,0-5.3-4.2-5.2-12.1L25.9,21.7z"/>
</svg>
